<svg width="40" height="40" viewBox="0 0 40 40" fill="none" xmlns="http://www.w3.org/2000/svg">
<path d="M14.8564 17.2584C16.2858 14.6856 17.0004 13.3992 17.8662 12.8532C19.1699 12.0309 20.8301 12.0309 22.1338 12.8532C22.9996 13.3992 23.7142 14.6856 25.1436 17.2584V17.2584C26.5036 19.7065 27.1836 20.9305 27.2013 21.929C27.228 23.4324 26.4093 24.8238 25.0822 25.5305C24.2007 26 22.8004 26 20 26V26C17.1996 26 15.7993 26 14.9178 25.5305C13.5907 24.8238 12.772 23.4324 12.7987 21.929C12.8164 20.9305 13.4964 19.7065 14.8564 17.2584V17.2584Z" stroke="#333333" stroke-width="4" stroke-linejoin="round"/>
</svg>
